<?xml version="1.0" encoding="UTF-8"?>
<svg width="100%" viewBox="0 0 680 240" xmlns="http://www.w3.org/2000/svg">
<defs>
<marker id="motarr2" viewBox="0 0 10 10" refX="8" refY="5" markerWidth="6" markerHeight="6" orient="auto-start-reverse">
<path d="M2 1L8 5L2 9" fill="none" stroke="context-stroke" stroke-width="1.5" stroke-linecap="round" stroke-linejoin="round"/>
</marker>
<radialGradient id="spark" cx="0.5" cy="0.5" r="0.5">
<stop offset="0%" stop-color="#FFC59D" stop-opacity="0.9"/>
<stop offset="100%" stop-color="#D85A30" stop-opacity="0"/>
</radialGradient>
</defs>

<text x="105" y="22" text-anchor="middle" font-size="13" font-weight="500" fill="#555">before (x nodes)</text>

<g stroke="#7A9AB8" stroke-width="1.1" fill="none" opacity="0.75">
<path d="M 40 70 Q 60 55 80 62" />
<path d="M 80 62 Q 110 50 140 70" />
<path d="M 140 70 Q 165 95 155 130" />
<path d="M 155 130 Q 130 160 95 165" />
<path d="M 95 165 Q 55 155 45 125" />
<path d="M 45 125 Q 30 95 40 70" />
<path d="M 80 62 Q 95 100 95 165" />
<path d="M 40 70 Q 100 110 155 130" />
<path d="M 140 70 Q 100 130 45 125" />
</g>

<g>
<circle cx="40" cy="70" r="7" fill="#B8D0E3" stroke="#4A7AA8" stroke-width="1.2"/>
<circle cx="80" cy="62" r="6" fill="#B8D0E3" stroke="#4A7AA8" stroke-width="1.2"/>
<circle cx="140" cy="70" r="7" fill="#B8D0E3" stroke="#4A7AA8" stroke-width="1.2"/>
<circle cx="155" cy="130" r="6" fill="#B8D0E3" stroke="#4A7AA8" stroke-width="1.2"/>
<circle cx="95" cy="165" r="7" fill="#B8D0E3" stroke="#4A7AA8" stroke-width="1.2"/>
<circle cx="45" cy="125" r="6" fill="#B8D0E3" stroke="#4A7AA8" stroke-width="1.2"/>
</g>

<text x="575" y="22" text-anchor="middle" font-size="13" font-weight="500" fill="#555">after (x+1 nodes)</text>

<g stroke="#7A9AB8" stroke-width="1.1" fill="none" opacity="0.75">
<path d="M 510 70 Q 530 55 550 62" />
<path d="M 550 62 Q 580 50 610 70" />
<path d="M 610 70 Q 635 95 625 130" />
<path d="M 625 130 Q 600 160 565 165" />
<path d="M 565 165 Q 525 155 515 125" />
<path d="M 515 125 Q 500 95 510 70" />
<path d="M 550 62 Q 565 100 565 165" />
<path d="M 510 70 Q 570 110 625 130" />
<path d="M 610 70 Q 570 130 515 125" />
</g>

<g stroke="#D85A30" stroke-width="1.6" fill="none" opacity="0.9">
<path d="M 610 70 Q 640 110 620 175" />
<path d="M 625 130 Q 640 155 620 175" />
<path d="M 565 165 Q 595 175 620 175" />
</g>

<g>
<circle cx="510" cy="70" r="7" fill="#B8D0E3" stroke="#4A7AA8" stroke-width="1.2"/>
<circle cx="550" cy="62" r="6" fill="#B8D0E3" stroke="#4A7AA8" stroke-width="1.2"/>
<circle cx="610" cy="70" r="7" fill="#B8D0E3" stroke="#4A7AA8" stroke-width="1.2"/>
<circle cx="625" cy="130" r="6" fill="#B8D0E3" stroke="#4A7AA8" stroke-width="1.2"/>
<circle cx="565" cy="165" r="7" fill="#B8D0E3" stroke="#4A7AA8" stroke-width="1.2"/>
<circle cx="515" cy="125" r="6" fill="#B8D0E3" stroke="#4A7AA8" stroke-width="1.2"/>
</g>

<circle cx="620" cy="175" r="24" fill="url(#spark)"/>
<circle cx="620" cy="175" r="9" fill="#D85A30" stroke="#8A3115" stroke-width="1.3"/>
<text x="620" y="178" text-anchor="middle" font-size="8" fill="white" font-weight="600">new</text>

<g transform="translate(340,100)">
<circle cx="0" cy="0" r="38" fill="url(#spark)"/>
<circle cx="0" cy="0" r="22" fill="#D85A30" stroke="#8A3115" stroke-width="1.5"/>
<text x="0" y="-2" text-anchor="middle" font-size="11" fill="white" font-weight="600">NEW</text>
<text x="0" y="11" text-anchor="middle" font-size="8" fill="white">episode</text>

<line x1="-30" y1="-8" x2="-70" y2="-25" stroke="#888" stroke-width="1" stroke-dasharray="3 2" fill="none"/>
<line x1="30" y1="-8" x2="70" y2="-25" stroke="#D85A30" stroke-width="1.3" marker-end="url(#motarr2)" fill="none"/>

<text x="-85" y="-35" text-anchor="end" font-size="10" fill="#888" font-style="italic">before</text>
<text x="85" y="-35" text-anchor="start" font-size="10" fill="#D85A30" font-style="italic" font-weight="500">after</text>
</g>

<rect x="265" y="165" width="150" height="42" rx="6" fill="#FCEBEB" stroke="#A32D2D" stroke-width="0.8"/>
<text x="340" y="182" text-anchor="middle" font-size="13" fill="#A32D2D" font-weight="600">どちらが良い?</text>
<text x="340" y="198" text-anchor="middle" font-size="11" fill="#A32D2D">F(before) vs F(after)</text>

<text x="340" y="230" text-anchor="middle" font-size="13" fill="#333">
<tspan font-weight="500">判定関数 F が存在しない</tspan> ― そこで本研究が F を定義する
</text>
</svg>
